REM DIRINDEX 1\2\3,1\2\4,1\2\5,1\2\6
REM DIRNAME folder01,folder02,folder03,folder04,folder05,folder06
TITLE ""
FILE "129 129.mp3" MP3
  TRACK 01 AUDIO
    TITLE "0:"
    INDEX 01 00:00:00
  TRACK 02 AUDIO
    TITLE "3:cjc157_4827"
    INDEX 01 00:00:11
  TRACK 03 AUDIO
    TITLE "0:"
    INDEX 01 00:01:34
  TRACK 04 AUDIO
    TITLE "4:cjc157_4828"
    INDEX 01 00:02:06
  TRACK 05 AUDIO
    TITLE "0:"
    INDEX 01 00:03:23
  TRACK 06 AUDIO
    TITLE "5:cjc157_4829"
    INDEX 01 00:03:72
  TRACK 07 AUDIO
    TITLE "0:"
    INDEX 01 00:05:57
  TRACK 08 AUDIO
    TITLE "5:cjc157_4830"
    INDEX 01 00:06:30
  TRACK 09 AUDIO
    TITLE "0:"
    INDEX 01 00:08:26
  TRACK 10 AUDIO
    TITLE "3:cjc157_4831"
    INDEX 01 00:08:68
  TRACK 11 AUDIO
    TITLE "0:"
    INDEX 01 00:10:21
  TRACK 12 AUDIO
    TITLE "4:cjc157_4832"
    INDEX 01 00:10:63
  TRACK 13 AUDIO
    TITLE "0:"
    INDEX 01 00:11:74
  TRACK 14 AUDIO
    TITLE "5:cjc157_4833"
    INDEX 01 00:12:48
  TRACK 15 AUDIO
    TITLE "0:"
    INDEX 01 00:15:17
  TRACK 16 AUDIO
    TITLE "3:cjc157_4834"
    INDEX 01 00:15:60
  TRACK 17 AUDIO
    TITLE "0:"
    INDEX 01 00:17:18
  TRACK 18 AUDIO
    TITLE "4:cjc157_4835"
    INDEX 01 00:17:57
  TRACK 19 AUDIO
    TITLE "0:"
    INDEX 01 00:18:52
  TRACK 20 AUDIO
    TITLE "5:cjc157_4836"
    INDEX 01 00:19:26
  TRACK 21 AUDIO
    TITLE "0:"
    INDEX 01 00:21:57
  TRACK 22 AUDIO
    TITLE "5:cjc157_4837"
    INDEX 01 00:22:30
  TRACK 23 AUDIO
    TITLE "0:"
    INDEX 01 00:24:41
  TRACK 24 AUDIO
    TITLE "3:cjc157_4838"
    INDEX 01 00:25:13
  TRACK 25 AUDIO
    TITLE "0:"
    INDEX 01 00:26:22
  TRACK 26 AUDIO
    TITLE "4:cjc157_4839"
    INDEX 01 00:26:69
  TRACK 27 AUDIO
    TITLE "0:"
    INDEX 01 00:27:65
  TRACK 28 AUDIO
    TITLE "5:cjc157_4840"
    INDEX 01 00:28:33
  TRACK 29 AUDIO
    TITLE "0:"
    INDEX 01 00:30:10
  TRACK 30 AUDIO
    TITLE "5:cjc157_4841"
    INDEX 01 00:30:61
  TRACK 31 AUDIO
    TITLE "0:"
    INDEX 01 00:32:35
  TRACK 32 AUDIO
    TITLE "3:cjc157_4842"
    INDEX 01 00:33:09
  TRACK 33 AUDIO
    TITLE "0:"
    INDEX 01 00:34:43
  TRACK 34 AUDIO
    TITLE "4:cjc157_4843"
    INDEX 01 00:35:14
  TRACK 35 AUDIO
    TITLE "0:"
    INDEX 01 00:40:07
  TRACK 36 AUDIO
    TITLE "5:cjc157_4844"
    INDEX 01 00:40:54
  TRACK 37 AUDIO
    TITLE "0:"
    INDEX 01 00:42:57
  TRACK 38 AUDIO
    TITLE "5:cjc157_4845"
    INDEX 01 00:43:25
  TRACK 39 AUDIO
    TITLE "0:"
    INDEX 01 00:44:71
  TRACK 40 AUDIO
    TITLE "3:cjc157_4846"
    INDEX 01 00:45:49
  TRACK 41 AUDIO
    TITLE "0:"
    INDEX 01 00:47:17
  TRACK 42 AUDIO
    TITLE "4:cjc157_4847"
    INDEX 01 00:47:60
  TRACK 43 AUDIO
    TITLE "0:"
    INDEX 01 00:54:40
  TRACK 44 AUDIO
    TITLE "5:cjc157_4848"
    INDEX 01 00:55:08
  TRACK 45 AUDIO
    TITLE "0:"
    INDEX 01 00:57:23
  TRACK 46 AUDIO
    TITLE "5:cjc157_4849"
    INDEX 01 00:57:68
  TRACK 47 AUDIO
    TITLE "0:"
    INDEX 01 01:00:39
  TRACK 48 AUDIO
    TITLE "3:cjc157_4850"
    INDEX 01 01:01:11
  TRACK 49 AUDIO
    TITLE "0:"
    INDEX 01 01:02:59
  TRACK 50 AUDIO
    TITLE "4:cjc157_4851"
    INDEX 01 01:03:31
  TRACK 51 AUDIO
    TITLE "0:"
    INDEX 01 01:04:52
  TRACK 52 AUDIO
    TITLE "5:cjc157_4852"
    INDEX 01 01:05:24
  TRACK 53 AUDIO
    TITLE "0:"
    INDEX 01 01:07:64
  TRACK 54 AUDIO
    TITLE "5:cjc157_4853"
    INDEX 01 01:08:31
  TRACK 55 AUDIO
    TITLE "0:"
    INDEX 01 01:10:18
  TRACK 56 AUDIO
    TITLE "5:cjc157_4854"
    INDEX 01 01:10:69
  TRACK 57 AUDIO
    TITLE "0:"
    INDEX 01 01:12:68
  TRACK 58 AUDIO
    TITLE "3:cjc157_4855"
    INDEX 01 01:13:38
  TRACK 59 AUDIO
    TITLE "0:"
    INDEX 01 01:14:61
  TRACK 60 AUDIO
    TITLE "4:cjc157_4856"
    INDEX 01 01:15:29
  TRACK 61 AUDIO
    TITLE "0:"
    INDEX 01 01:16:44
  TRACK 62 AUDIO
    TITLE "5:cjc157_4857"
    INDEX 01 01:17:16
  TRACK 63 AUDIO
    TITLE "0:"
    INDEX 01 01:19:34
  TRACK 64 AUDIO
    TITLE "5:cjc157_4858"
    INDEX 01 01:20:06
  TRACK 65 AUDIO
    TITLE "0:"
    INDEX 01 01:22:68
  TRACK 66 AUDIO
    TITLE "3:cjc157_4859"
    INDEX 01 01:23:38
  TRACK 67 AUDIO
    TITLE "0:"
    INDEX 01 01:25:29
  TRACK 68 AUDIO
    TITLE "4:cjc157_4860"
    INDEX 01 01:25:74
  TRACK 69 AUDIO
    TITLE "0:"
    INDEX 01 01:27:03
  TRACK 70 AUDIO
    TITLE "5:cjc157_4861"
    INDEX 01 01:27:57
  TRACK 71 AUDIO
    TITLE "0:"
    INDEX 01 01:30:30
  TRACK 72 AUDIO
    TITLE "5:cjc157_4862"
    INDEX 01 01:31:04
  TRACK 73 AUDIO
    TITLE "0:"
    INDEX 01 01:33:33
  TRACK 74 AUDIO
    TITLE "3:cjc157_4863"
    INDEX 01 01:34:06
  TRACK 75 AUDIO
    TITLE "0:"
    INDEX 01 01:35:37
  TRACK 76 AUDIO
    TITLE "4:cjc157_4864"
    INDEX 01 01:36:09
  TRACK 77 AUDIO
    TITLE "0:"
    INDEX 01 01:37:24
  TRACK 78 AUDIO
    TITLE "5:cjc157_4865"
    INDEX 01 01:37:73
  TRACK 79 AUDIO
    TITLE "0:"
    INDEX 01 01:41:12
